# xmcd
#
# Track frame offsets:
#	150
#	19317
#	36690
#	56179
#	80507
#	100172
#	120824
#	142909
#	162583
#	172953
#	196628
#	219979
#
# Disc length: 3215 seconds
#
# Revision: 1
# Processed by: cddbd v1.5.2PL0 Copyright (c) Steve Scherf et al.
# Submitted via: audiograbber 1.83.01
#
DISCID=9e0c8d0c
DTITLE=Ari Wahlberg and Best of Presents - Mä Oon Sun Elvis
DYEAR=2008
DGENRE=
TTITLE0=en kitaraa vie kaniin
TTITLE1=huono uskomaan
TTITLE2=katutu kanduli
TTITLE3=miehen blues
TTITLE4=(mä olin sun) elvis
TTITLE5=ootsä viela mun
TTITLE6=on se päivä taas
TTITLE7=purkkaa
TTITLE8=tell me  now
TTITLE9=toivon tahtiin
TTITLE10=pappilaan
TTITLE11=sunnuntai
EXTD=
EXTT0=
EXTT1=
EXTT2=
EXTT3=
EXTT4=
EXTT5=
EXTT6=
EXTT7=
EXTT8=
EXTT9=
EXTT10=
EXTT11=
PLAYORDER=
